<svg xmlns="http://www.w3.org/2000/svg" version="1.1" xmlns:xlink="http://www.w3.org/1999/xlink" xmlns:svgjs="http://svgjs.dev/svgjs" width="1440" height="560" preserveAspectRatio="none" viewBox="0 0 1440 560"><g mask="url(&quot;#SvgjsMask1150&quot;)" fill="none"><rect width="1440" height="560" x="0" y="0" fill="url(&quot;#SvgjsLinearGradient1151&quot;)"></rect><path d="M-88.72 388.64L-88.72 388.64" stroke="rgba(153, 39, 111, 1)" stroke-width="1.5"></path><path d="M-88.72 388.64L-44.63 554.95" stroke="rgba(153, 39, 111, 1)" stroke-width="1.5"></path><path d="M-88.72 388.64L103.92 380.68" stroke="rgba(153, 39, 111, 1)" stroke-width="1.5"></path><path d="M-88.72 388.64L61.44 558.97" stroke="rgba(153, 39, 111, 1)" stroke-width="1.5"></path><path d="M-88.72 388.64L205.02 384.38" stroke="rgba(153, 39, 111, 1)" stroke-width="1.5"></path><path d="M-88.72 388.64L-72.57 684.33" stroke="rgba(153, 39, 111, 1)" stroke-width="1.5"></path><path d="M-44.63 554.95L-44.63 554.95" stroke="rgba(153, 39, 111, 1)" stroke-width="1.5"></path><path d="M-44.63 554.95L61.44 558.97" stroke="rgba(153, 39, 111, 1)" stroke-width="1.5"></path><path d="M-44.63 554.95L-72.57 684.33" stroke="rgba(153, 39, 111, 1)" stroke-width="1.5"></path><path d="M-44.63 554.95L70.82 700.86" stroke="rgba(153, 39, 111, 1)" stroke-width="1.5"></path><path d="M-44.63 554.95L103.92 380.68" stroke="rgba(153, 39, 111, 1)" stroke-width="1.5"></path><path d="M-44.63 554.95L201.44 656.05" stroke="rgba(153, 39, 111, 1)" stroke-width="1.5"></path><path d="M-72.57 684.33L-72.57 684.33" stroke="rgba(153, 39, 111, 1)" stroke-width="1.5"></path><path d="M-72.57 684.33L70.82 700.86" stroke="rgba(153, 39, 111, 1)" stroke-width="1.5"></path><path d="M-72.57 684.33L61.44 558.97" stroke="rgba(153, 39, 111, 1)" stroke-width="1.5"></path><path d="M-72.57 684.33L201.44 656.05" stroke="rgba(153, 39, 111, 1)" stroke-width="1.5"></path><path d="M103.92 380.68L103.92 380.68" stroke="rgba(153, 39, 111, 1)" stroke-width="1.5"></path><path d="M103.92 380.68L205.02 384.38" stroke="rgba(153, 39, 111, 1)" stroke-width="1.5"></path><path d="M103.92 380.68L246.13 491.64" stroke="rgba(153, 39, 111, 1)" stroke-width="1.5"></path><path d="M103.92 380.68L61.44 558.97" stroke="rgba(153, 39, 111, 1)" stroke-width="1.5"></path><path d="M61.44 558.97L61.44 558.97" stroke="rgba(153, 39, 111, 1)" stroke-width="1.5"></path><path d="M61.44 558.97L70.82 700.86" stroke="rgba(153, 39, 111, 1)" stroke-width="1.5"></path><path d="M61.44 558.97L201.44 656.05" stroke="rgba(153, 39, 111, 1)" stroke-width="1.5"></path><path d="M70.82 700.86L70.82 700.86" stroke="rgba(153, 39, 111, 1)" stroke-width="1.5"></path><path d="M70.82 700.86L201.44 656.05" stroke="rgba(153, 39, 111, 1)" stroke-width="1.5"></path><path d="M205.02 384.38L205.02 384.38" stroke="rgba(153, 39, 111, 1)" stroke-width="1.5"></path><path d="M205.02 384.38L246.13 491.64" stroke="rgba(153, 39, 111, 1)" stroke-width="1.5"></path><path d="M205.02 384.38L402.67 395.77" stroke="rgba(153, 39, 111, 1)" stroke-width="1.5"></path><path d="M205.02 384.38L61.44 558.97" stroke="rgba(153, 39, 111, 1)" stroke-width="1.5"></path><path d="M246.13 491.64L246.13 491.64" stroke="rgba(153, 39, 111, 1)" stroke-width="1.5"></path><path d="M246.13 491.64L391.88 549.7" stroke="rgba(153, 39, 111, 1)" stroke-width="1.5"></path><path d="M246.13 491.64L201.44 656.05" stroke="rgba(153, 39, 111, 1)" stroke-width="1.5"></path><path d="M246.13 491.64L402.67 395.77" stroke="rgba(153, 39, 111, 1)" stroke-width="1.5"></path><path d="M246.13 491.64L61.44 558.97" stroke="rgba(153, 39, 111, 1)" stroke-width="1.5"></path><path d="M201.44 656.05L201.44 656.05" stroke="rgba(153, 39, 111, 1)" stroke-width="1.5"></path><path d="M201.44 656.05L373.71 690.66" stroke="rgba(153, 39, 111, 1)" stroke-width="1.5"></path><path d="M201.44 656.05L391.88 549.7" stroke="rgba(153, 39, 111, 1)" stroke-width="1.5"></path><path d="M402.67 395.77L402.67 395.77" stroke="rgba(153, 39, 111, 1)" stroke-width="1.5"></path><path d="M402.67 395.77L391.88 549.7" stroke="rgba(153, 39, 111, 1)" stroke-width="1.5"></path><path d="M402.67 395.77L559.38 410.7" stroke="rgba(153, 39, 111, 1)" stroke-width="1.5"></path><path d="M402.67 395.77L492.25 558.35" stroke="rgba(153, 39, 111, 1)" stroke-width="1.5"></path><path d="M391.88 549.7L391.88 549.7" stroke="rgba(153, 39, 111, 1)" stroke-width="1.5"></path><path d="M391.88 549.7L492.25 558.35" stroke="rgba(153, 39, 111, 1)" stroke-width="1.5"></path><path d="M391.88 549.7L373.71 690.66" stroke="rgba(153, 39, 111, 1)" stroke-width="1.5"></path><path d="M391.88 549.7L506.01 648.23" stroke="rgba(153, 39, 111, 1)" stroke-width="1.5"></path><path d="M373.71 690.66L373.71 690.66" stroke="rgba(153, 39, 111, 1)" stroke-width="1.5"></path><path d="M373.71 690.66L506.01 648.23" stroke="rgba(153, 39, 111, 1)" stroke-width="1.5"></path><path d="M373.71 690.66L492.25 558.35" stroke="rgba(153, 39, 111, 1)" stroke-width="1.5"></path><path d="M373.71 690.66L246.13 491.64" stroke="rgba(153, 39, 111, 1)" stroke-width="1.5"></path><path d="M373.71 690.66L402.67 395.77" stroke="rgba(153, 39, 111, 1)" stroke-width="1.5"></path><path d="M559.38 410.7L559.38 410.7" stroke="rgba(153, 39, 111, 1)" stroke-width="1.5"></path><path d="M559.38 410.7L660.65 351.18" stroke="rgba(153, 39, 111, 1)" stroke-width="1.5"></path><path d="M559.38 410.7L653.44 509.05" stroke="rgba(153, 39, 111, 1)" stroke-width="1.5"></path><path d="M492.25 558.35L492.25 558.35" stroke="rgba(153, 39, 111, 1)" stroke-width="1.5"></path><path d="M492.25 558.35L506.01 648.23" stroke="rgba(153, 39, 111, 1)" stroke-width="1.5"></path><path d="M492.25 558.35L559.38 410.7" stroke="rgba(153, 39, 111, 1)" stroke-width="1.5"></path><path d="M506.01 648.23L506.01 648.23" stroke="rgba(153, 39, 111, 1)" stroke-width="1.5"></path><path d="M506.01 648.23L697.26 664.41" stroke="rgba(153, 39, 111, 1)" stroke-width="1.5"></path><path d="M506.01 648.23L653.44 509.05" stroke="rgba(153, 39, 111, 1)" stroke-width="1.5"></path><path d="M506.01 648.23L559.38 410.7" stroke="rgba(153, 39, 111, 1)" stroke-width="1.5"></path><path d="M710.71 200.3L710.71 200.3" stroke="rgba(153, 39, 111, 1)" stroke-width="1.5"></path><path d="M710.71 200.3L859.51 198.38" stroke="rgba(153, 39, 111, 1)" stroke-width="1.5"></path><path d="M710.71 200.3L660.65 351.18" stroke="rgba(153, 39, 111, 1)" stroke-width="1.5"></path><path d="M710.71 200.3L559.38 410.7" stroke="rgba(153, 39, 111, 1)" stroke-width="1.5"></path><path d="M710.71 200.3L976.14 201.54" stroke="rgba(153, 39, 111, 1)" stroke-width="1.5"></path><path d="M660.65 351.18L660.65 351.18" stroke="rgba(153, 39, 111, 1)" stroke-width="1.5"></path><path d="M660.65 351.18L653.44 509.05" stroke="rgba(153, 39, 111, 1)" stroke-width="1.5"></path><path d="M660.65 351.18L810.31 523.25" stroke="rgba(153, 39, 111, 1)" stroke-width="1.5"></path><path d="M660.65 351.18L859.51 198.38" stroke="rgba(153, 39, 111, 1)" stroke-width="1.5"></path><path d="M660.65 351.18L402.67 395.77" stroke="rgba(153, 39, 111, 1)" stroke-width="1.5"></path><path d="M653.44 509.05L653.44 509.05" stroke="rgba(153, 39, 111, 1)" stroke-width="1.5"></path><path d="M653.44 509.05L810.31 523.25" stroke="rgba(153, 39, 111, 1)" stroke-width="1.5"></path><path d="M653.44 509.05L697.26 664.41" stroke="rgba(153, 39, 111, 1)" stroke-width="1.5"></path><path d="M653.44 509.05L492.25 558.35" stroke="rgba(153, 39, 111, 1)" stroke-width="1.5"></path><path d="M697.26 664.41L697.26 664.41" stroke="rgba(153, 39, 111, 1)" stroke-width="1.5"></path><path d="M697.26 664.41L848.37 669.33" stroke="rgba(153, 39, 111, 1)" stroke-width="1.5"></path><path d="M697.26 664.41L810.31 523.25" stroke="rgba(153, 39, 111, 1)" stroke-width="1.5"></path><path d="M859.51 198.38L859.51 198.38" stroke="rgba(153, 39, 111, 1)" stroke-width="1.5"></path><path d="M859.51 198.38L976.14 201.54" stroke="rgba(153, 39, 111, 1)" stroke-width="1.5"></path><path d="M810.31 523.25L810.31 523.25" stroke="rgba(153, 39, 111, 1)" stroke-width="1.5"></path><path d="M810.31 523.25L848.37 669.33" stroke="rgba(153, 39, 111, 1)" stroke-width="1.5"></path><path d="M810.31 523.25L973.53 519.29" stroke="rgba(153, 39, 111, 1)" stroke-width="1.5"></path><path d="M848.37 669.33L848.37 669.33" stroke="rgba(153, 39, 111, 1)" stroke-width="1.5"></path><path d="M848.37 669.33L964.51 674.51" stroke="rgba(153, 39, 111, 1)" stroke-width="1.5"></path><path d="M1006.14 68.13L1006.14 68.13" stroke="rgba(153, 39, 111, 1)" stroke-width="1.5"></path><path d="M1006.14 68.13L1130.14 41.18" stroke="rgba(153, 39, 111, 1)" stroke-width="1.5"></path><path d="M1006.14 68.13L976.14 201.54" stroke="rgba(153, 39, 111, 1)" stroke-width="1.5"></path><path d="M1006.14 68.13L859.51 198.38" stroke="rgba(153, 39, 111, 1)" stroke-width="1.5"></path><path d="M1006.14 68.13L1088.41 260.25" stroke="rgba(153, 39, 111, 1)" stroke-width="1.5"></path><path d="M1006.14 68.13L1148.64 -108.77" stroke="rgba(153, 39, 111, 1)" stroke-width="1.5"></path><path d="M976.14 201.54L976.14 201.54" stroke="rgba(153, 39, 111, 1)" stroke-width="1.5"></path><path d="M976.14 201.54L1088.41 260.25" stroke="rgba(153, 39, 111, 1)" stroke-width="1.5"></path><path d="M976.14 201.54L986.78 381.21" stroke="rgba(153, 39, 111, 1)" stroke-width="1.5"></path><path d="M976.14 201.54L1130.14 41.18" stroke="rgba(153, 39, 111, 1)" stroke-width="1.5"></path><path d="M976.14 201.54L1138.38 354.88" stroke="rgba(153, 39, 111, 1)" stroke-width="1.5"></path><path d="M986.78 381.21L986.78 381.21" stroke="rgba(153, 39, 111, 1)" stroke-width="1.5"></path><path d="M986.78 381.21L973.53 519.29" stroke="rgba(153, 39, 111, 1)" stroke-width="1.5"></path><path d="M986.78 381.21L1138.38 354.88" stroke="rgba(153, 39, 111, 1)" stroke-width="1.5"></path><path d="M986.78 381.21L1087.94 497.19" stroke="rgba(153, 39, 111, 1)" stroke-width="1.5"></path><path d="M986.78 381.21L1088.41 260.25" stroke="rgba(153, 39, 111, 1)" stroke-width="1.5"></path><path d="M973.53 519.29L973.53 519.29" stroke="rgba(153, 39, 111, 1)" stroke-width="1.5"></path><path d="M973.53 519.29L1087.94 497.19" stroke="rgba(153, 39, 111, 1)" stroke-width="1.5"></path><path d="M973.53 519.29L964.51 674.51" stroke="rgba(153, 39, 111, 1)" stroke-width="1.5"></path><path d="M973.53 519.29L1095.35 638.36" stroke="rgba(153, 39, 111, 1)" stroke-width="1.5"></path><path d="M964.51 674.51L964.51 674.51" stroke="rgba(153, 39, 111, 1)" stroke-width="1.5"></path><path d="M964.51 674.51L1095.35 638.36" stroke="rgba(153, 39, 111, 1)" stroke-width="1.5"></path><path d="M1148.64 -108.77L1148.64 -108.77" stroke="rgba(153, 39, 111, 1)" stroke-width="1.5"></path><path d="M1148.64 -108.77L1130.14 41.18" stroke="rgba(153, 39, 111, 1)" stroke-width="1.5"></path><path d="M1148.64 -108.77L1304.04 -106.49" stroke="rgba(153, 39, 111, 1)" stroke-width="1.5"></path><path d="M1148.64 -108.77L976.14 201.54" stroke="rgba(153, 39, 111, 1)" stroke-width="1.5"></path><path d="M1130.14 41.18L1130.14 41.18" stroke="rgba(153, 39, 111, 1)" stroke-width="1.5"></path><path d="M1088.41 260.25L1088.41 260.25" stroke="rgba(153, 39, 111, 1)" stroke-width="1.5"></path><path d="M1088.41 260.25L1138.38 354.88" stroke="rgba(153, 39, 111, 1)" stroke-width="1.5"></path><path d="M1138.38 354.88L1138.38 354.88" stroke="rgba(153, 39, 111, 1)" stroke-width="1.5"></path><path d="M1138.38 354.88L1279.39 370.23" stroke="rgba(153, 39, 111, 1)" stroke-width="1.5"></path><path d="M1138.38 354.88L1087.94 497.19" stroke="rgba(153, 39, 111, 1)" stroke-width="1.5"></path><path d="M1138.38 354.88L1251.09 235.4" stroke="rgba(153, 39, 111, 1)" stroke-width="1.5"></path><path d="M1087.94 497.19L1087.94 497.19" stroke="rgba(153, 39, 111, 1)" stroke-width="1.5"></path><path d="M1087.94 497.19L1095.35 638.36" stroke="rgba(153, 39, 111, 1)" stroke-width="1.5"></path><path d="M1095.35 638.36L1095.35 638.36" stroke="rgba(153, 39, 111, 1)" stroke-width="1.5"></path><path d="M1095.35 638.36L1261.26 554.7" stroke="rgba(153, 39, 111, 1)" stroke-width="1.5"></path><path d="M1095.35 638.36L848.37 669.33" stroke="rgba(153, 39, 111, 1)" stroke-width="1.5"></path><path d="M1095.35 638.36L986.78 381.21" stroke="rgba(153, 39, 111, 1)" stroke-width="1.5"></path><path d="M1304.04 -106.49L1304.04 -106.49" stroke="rgba(153, 39, 111, 1)" stroke-width="1.5"></path><path d="M1304.04 -106.49L1130.14 41.18" stroke="rgba(153, 39, 111, 1)" stroke-width="1.5"></path><path d="M1304.04 -106.49L1456.9 77.06" stroke="rgba(153, 39, 111, 1)" stroke-width="1.5"></path><path d="M1304.04 -106.49L1576.17 -99.62" stroke="rgba(153, 39, 111, 1)" stroke-width="1.5"></path><path d="M1251.09 235.4L1251.09 235.4" stroke="rgba(153, 39, 111, 1)" stroke-width="1.5"></path><path d="M1251.09 235.4L1279.39 370.23" stroke="rgba(153, 39, 111, 1)" stroke-width="1.5"></path><path d="M1251.09 235.4L1088.41 260.25" stroke="rgba(153, 39, 111, 1)" stroke-width="1.5"></path><path d="M1279.39 370.23L1279.39 370.23" stroke="rgba(153, 39, 111, 1)" stroke-width="1.5"></path><path d="M1279.39 370.23L1261.26 554.7" stroke="rgba(153, 39, 111, 1)" stroke-width="1.5"></path><path d="M1279.39 370.23L1422.21 229.02" stroke="rgba(153, 39, 111, 1)" stroke-width="1.5"></path><path d="M1261.26 554.7L1261.26 554.7" stroke="rgba(153, 39, 111, 1)" stroke-width="1.5"></path><path d="M1261.26 554.7L1428.42 509.09" stroke="rgba(153, 39, 111, 1)" stroke-width="1.5"></path><path d="M1261.26 554.7L1087.94 497.19" stroke="rgba(153, 39, 111, 1)" stroke-width="1.5"></path><path d="M1261.26 554.7L1442.29 673.91" stroke="rgba(153, 39, 111, 1)" stroke-width="1.5"></path><path d="M1456.9 77.06L1456.9 77.06" stroke="rgba(153, 39, 111, 1)" stroke-width="1.5"></path><path d="M1456.9 77.06L1572.1 82.4" stroke="rgba(153, 39, 111, 1)" stroke-width="1.5"></path><path d="M1422.21 229.02L1422.21 229.02" stroke="rgba(153, 39, 111, 1)" stroke-width="1.5"></path><path d="M1422.21 229.02L1456.9 77.06" stroke="rgba(153, 39, 111, 1)" stroke-width="1.5"></path><path d="M1422.21 229.02L1251.09 235.4" stroke="rgba(153, 39, 111, 1)" stroke-width="1.5"></path><path d="M1422.21 229.02L1607.09 225.07" stroke="rgba(153, 39, 111, 1)" stroke-width="1.5"></path><path d="M1428.42 509.09L1428.42 509.09" stroke="rgba(153, 39, 111, 1)" stroke-width="1.5"></path><path d="M1428.42 509.09L1577.51 541.18" stroke="rgba(153, 39, 111, 1)" stroke-width="1.5"></path><path d="M1428.42 509.09L1442.29 673.91" stroke="rgba(153, 39, 111, 1)" stroke-width="1.5"></path><path d="M1428.42 509.09L1576.72 374.48" stroke="rgba(153, 39, 111, 1)" stroke-width="1.5"></path><path d="M1442.29 673.91L1442.29 673.91" stroke="rgba(153, 39, 111, 1)" stroke-width="1.5"></path><path d="M1442.29 673.91L1587.93 669.58" stroke="rgba(153, 39, 111, 1)" stroke-width="1.5"></path><path d="M1442.29 673.91L1577.51 541.18" stroke="rgba(153, 39, 111, 1)" stroke-width="1.5"></path><path d="M1442.29 673.91L1576.72 374.48" stroke="rgba(153, 39, 111, 1)" stroke-width="1.5"></path><path d="M1576.17 -99.62L1576.17 -99.62" stroke="rgba(153, 39, 111, 1)" stroke-width="1.5"></path><path d="M1576.17 -99.62L1572.1 82.4" stroke="rgba(153, 39, 111, 1)" stroke-width="1.5"></path><path d="M1576.17 -99.62L1456.9 77.06" stroke="rgba(153, 39, 111, 1)" stroke-width="1.5"></path><path d="M1576.17 -99.62L1607.09 225.07" stroke="rgba(153, 39, 111, 1)" stroke-width="1.5"></path><path d="M1572.1 82.4L1572.1 82.4" stroke="rgba(153, 39, 111, 1)" stroke-width="1.5"></path><path d="M1572.1 82.4L1607.09 225.07" stroke="rgba(153, 39, 111, 1)" stroke-width="1.5"></path><path d="M1572.1 82.4L1422.21 229.02" stroke="rgba(153, 39, 111, 1)" stroke-width="1.5"></path><path d="M1572.1 82.4L1576.72 374.48" stroke="rgba(153, 39, 111, 1)" stroke-width="1.5"></path><path d="M1572.1 82.4L1304.04 -106.49" stroke="rgba(153, 39, 111, 1)" stroke-width="1.5"></path><path d="M1607.09 225.07L1607.09 225.07" stroke="rgba(153, 39, 111, 1)" stroke-width="1.5"></path><path d="M1607.09 225.07L1576.72 374.48" stroke="rgba(153, 39, 111, 1)" stroke-width="1.5"></path><path d="M1576.72 374.48L1576.72 374.48" stroke="rgba(153, 39, 111, 1)" stroke-width="1.5"></path><path d="M1576.72 374.48L1577.51 541.18" stroke="rgba(153, 39, 111, 1)" stroke-width="1.5"></path><path d="M1576.72 374.48L1422.21 229.02" stroke="rgba(153, 39, 111, 1)" stroke-width="1.5"></path><path d="M1576.72 374.48L1587.93 669.58" stroke="rgba(153, 39, 111, 1)" stroke-width="1.5"></path><path d="M1577.51 541.18L1577.51 541.18" stroke="rgba(153, 39, 111, 1)" stroke-width="1.5"></path><path d="M1577.51 541.18L1587.93 669.58" stroke="rgba(153, 39, 111, 1)" stroke-width="1.5"></path><path d="M1577.51 541.18L1261.26 554.7" stroke="rgba(153, 39, 111, 1)" stroke-width="1.5"></path><path d="M1587.93 669.58L1587.93 669.58" stroke="rgba(153, 39, 111, 1)" stroke-width="1.5"></path><path d="M1587.93 669.58L1428.42 509.09" stroke="rgba(153, 39, 111, 1)" stroke-width="1.5"></path><path d="M1587.93 669.58L1261.26 554.7" stroke="rgba(153, 39, 111, 1)" stroke-width="1.5"></path><path d="M1587.93 669.58L1279.39 370.23" stroke="rgba(153, 39, 111, 1)" stroke-width="1.5"></path><circle r="5" cx="-88.72" cy="388.64" fill="rgba(153, 39, 111, 1)"></circle><circle r="5" cx="-44.63" cy="554.95" fill="rgba(153, 39, 111, 1)"></circle><circle r="5" cx="-72.57" cy="684.33" fill="rgba(153, 39, 111, 1)"></circle><circle r="5" cx="103.92" cy="380.68" fill="rgba(153, 39, 111, 1)"></circle><circle r="5" cx="61.44" cy="558.97" fill="rgba(153, 39, 111, 1)"></circle><circle r="5" cx="70.82" cy="700.86" fill="rgba(153, 39, 111, 1)"></circle><circle r="5" cx="205.02" cy="384.38" fill="rgba(153, 39, 111, 1)"></circle><circle r="5" cx="246.13" cy="491.64" fill="rgba(153, 39, 111, 1)"></circle><circle r="5" cx="201.44" cy="656.05" fill="rgba(153, 39, 111, 1)"></circle><circle r="5" cx="402.67" cy="395.77" fill="rgba(153, 39, 111, 1)"></circle><circle r="5" cx="391.88" cy="549.7" fill="rgba(153, 39, 111, 1)"></circle><circle r="5" cx="373.71" cy="690.66" fill="rgba(153, 39, 111, 1)"></circle><circle r="5" cx="559.38" cy="410.7" fill="rgba(153, 39, 111, 1)"></circle><circle r="5" cx="492.25" cy="558.35" fill="rgba(153, 39, 111, 1)"></circle><circle r="5" cx="506.01" cy="648.23" fill="rgba(153, 39, 111, 1)"></circle><circle r="5" cx="710.71" cy="200.3" fill="rgba(153, 39, 111, 1)"></circle><circle r="5" cx="660.65" cy="351.18" fill="rgba(153, 39, 111, 1)"></circle><circle r="5" cx="653.44" cy="509.05" fill="rgba(153, 39, 111, 1)"></circle><circle r="5" cx="697.26" cy="664.41" fill="rgba(153, 39, 111, 1)"></circle><circle r="5" cx="859.51" cy="198.38" fill="rgba(153, 39, 111, 1)"></circle><circle r="5" cx="810.31" cy="523.25" fill="rgba(153, 39, 111, 1)"></circle><circle r="5" cx="848.37" cy="669.33" fill="rgba(153, 39, 111, 1)"></circle><circle r="5" cx="1006.14" cy="68.13" fill="rgba(153, 39, 111, 1)"></circle><circle r="5" cx="976.14" cy="201.54" fill="rgba(153, 39, 111, 1)"></circle><circle r="5" cx="986.78" cy="381.21" fill="rgba(153, 39, 111, 1)"></circle><circle r="5" cx="973.53" cy="519.29" fill="rgba(153, 39, 111, 1)"></circle><circle r="5" cx="964.51" cy="674.51" fill="rgba(153, 39, 111, 1)"></circle><circle r="5" cx="1148.64" cy="-108.77" fill="rgba(153, 39, 111, 1)"></circle><circle r="5" cx="1130.14" cy="41.18" fill="rgba(153, 39, 111, 1)"></circle><circle r="5" cx="1088.41" cy="260.25" fill="rgba(153, 39, 111, 1)"></circle><circle r="5" cx="1138.38" cy="354.88" fill="rgba(153, 39, 111, 1)"></circle><circle r="5" cx="1087.94" cy="497.19" fill="rgba(153, 39, 111, 1)"></circle><circle r="5" cx="1095.35" cy="638.36" fill="rgba(153, 39, 111, 1)"></circle><circle r="5" cx="1304.04" cy="-106.49" fill="rgba(153, 39, 111, 1)"></circle><circle r="5" cx="1251.09" cy="235.4" fill="rgba(153, 39, 111, 1)"></circle><circle r="5" cx="1279.39" cy="370.23" fill="rgba(153, 39, 111, 1)"></circle><circle r="5" cx="1261.26" cy="554.7" fill="rgba(153, 39, 111, 1)"></circle><circle r="5" cx="1456.9" cy="77.06" fill="rgba(153, 39, 111, 1)"></circle><circle r="5" cx="1422.21" cy="229.02" fill="rgba(153, 39, 111, 1)"></circle><circle r="5" cx="1428.42" cy="509.09" fill="rgba(153, 39, 111, 1)"></circle><circle r="5" cx="1442.29" cy="673.91" fill="rgba(153, 39, 111, 1)"></circle><circle r="5" cx="1576.17" cy="-99.62" fill="rgba(153, 39, 111, 1)"></circle><circle r="5" cx="1572.1" cy="82.4" fill="rgba(153, 39, 111, 1)"></circle><circle r="5" cx="1607.09" cy="225.07" fill="rgba(153, 39, 111, 1)"></circle><circle r="5" cx="1576.72" cy="374.48" fill="rgba(153, 39, 111, 1)"></circle><circle r="5" cx="1577.51" cy="541.18" fill="rgba(153, 39, 111, 1)"></circle><circle r="5" cx="1587.93" cy="669.58" fill="rgba(153, 39, 111, 1)"></circle><path d="M52.06 688.86L52.06 688.86" stroke="hsl(326.1, 86.4%, 44.9%)" stroke-width="1.5"></path><path d="M52.06 688.86L-64.09 651.43" stroke="hsl(326.1, 86.4%, 44.9%)" stroke-width="1.5"></path><path d="M209.72 661.84L209.72 661.84" stroke="hsl(326.1, 86.4%, 44.9%)" stroke-width="1.5"></path><path d="M209.72 661.84L209.98 529.35" stroke="hsl(326.1, 86.4%, 44.9%)" stroke-width="1.5"></path><path d="M209.72 661.84L52.06 688.86" stroke="hsl(326.1, 86.4%, 44.9%)" stroke-width="1.5"></path><path d="M209.72 661.84L56.24 558.07" stroke="hsl(326.1, 86.4%, 44.9%)" stroke-width="1.5"></path><path d="M209.72 661.84L402.02 644.65" stroke="hsl(326.1, 86.4%, 44.9%)" stroke-width="1.5"></path><path d="M209.72 661.84L338.17 491.6" stroke="hsl(326.1, 86.4%, 44.9%)" stroke-width="1.5"></path><path d="M938.73 508.3L938.73 508.3" stroke="hsl(326.1, 86.4%, 44.9%)" stroke-width="1.5"></path><path d="M938.73 508.3L845.52 549.54" stroke="hsl(326.1, 86.4%, 44.9%)" stroke-width="1.5"></path><path d="M938.73 508.3L961.83 382" stroke="hsl(326.1, 86.4%, 44.9%)" stroke-width="1.5"></path><path d="M938.73 508.3L859.97 352.96" stroke="hsl(326.1, 86.4%, 44.9%)" stroke-width="1.5"></path><path d="M1150.39 40.64L1150.39 40.64" stroke="hsl(326.1, 86.4%, 44.9%)" stroke-width="1.5"></path><path d="M1150.39 40.64L1279.39 -45.82" stroke="hsl(326.1, 86.4%, 44.9%)" stroke-width="1.5"></path><path d="M1150.39 40.64L1300.35 88.89" stroke="hsl(326.1, 86.4%, 44.9%)" stroke-width="1.5"></path><path d="M1150.39 40.64L1102.84 235.67" stroke="hsl(326.1, 86.4%, 44.9%)" stroke-width="1.5"></path><path d="M1152.63 556L1152.63 556" stroke="hsl(326.1, 86.4%, 44.9%)" stroke-width="1.5"></path><path d="M1152.63 556L1119.14 647.64" stroke="hsl(326.1, 86.4%, 44.9%)" stroke-width="1.5"></path><path d="M1152.63 556L1265.49 526.44" stroke="hsl(326.1, 86.4%, 44.9%)" stroke-width="1.5"></path><path d="M1152.63 556L1098.7 367.7" stroke="hsl(326.1, 86.4%, 44.9%)" stroke-width="1.5"></path><path d="M1609.38 -79.02L1609.38 -79.02" stroke="hsl(326.1, 86.4%, 44.9%)" stroke-width="1.5"></path><path d="M1609.38 -79.02L1586.64 84.81" stroke="hsl(326.1, 86.4%, 44.9%)" stroke-width="1.5"></path><path d="M1609.38 -79.02L1438.2 -102.32" stroke="hsl(326.1, 86.4%, 44.9%)" stroke-width="1.5"></path><path d="M1586.64 84.81L1586.64 84.81" stroke="hsl(326.1, 86.4%, 44.9%)" stroke-width="1.5"></path><path d="M1586.64 84.81L1601.07 187.56" stroke="hsl(326.1, 86.4%, 44.9%)" stroke-width="1.5"></path><path d="M1586.64 84.81L1446.16 68.81" stroke="hsl(326.1, 86.4%, 44.9%)" stroke-width="1.5"></path><path d="M-81.32 513.01L-81.32 513.01" stroke="hsl(326.1, 86.4%, 44.9%)" stroke-width="1.5"></path><path d="M-81.32 513.01L-64.09 651.43" stroke="hsl(326.1, 86.4%, 44.9%)" stroke-width="1.5"></path><path d="M-81.32 513.01L56.24 558.07" stroke="hsl(326.1, 86.4%, 44.9%)" stroke-width="1.5"></path><path d="M-64.09 651.43L-64.09 651.43" stroke="hsl(326.1, 86.4%, 44.9%)" stroke-width="1.5"></path><path d="M56.24 558.07L56.24 558.07" stroke="hsl(326.1, 86.4%, 44.9%)" stroke-width="1.5"></path><path d="M56.24 558.07L52.06 688.86" stroke="hsl(326.1, 86.4%, 44.9%)" stroke-width="1.5"></path><path d="M209.98 529.35L209.98 529.35" stroke="hsl(326.1, 86.4%, 44.9%)" stroke-width="1.5"></path><path d="M209.98 529.35L338.17 491.6" stroke="hsl(326.1, 86.4%, 44.9%)" stroke-width="1.5"></path><path d="M209.98 529.35L56.24 558.07" stroke="hsl(326.1, 86.4%, 44.9%)" stroke-width="1.5"></path><path d="M209.98 529.35L402.02 644.65" stroke="hsl(326.1, 86.4%, 44.9%)" stroke-width="1.5"></path><path d="M338.17 491.6L338.17 491.6" stroke="hsl(326.1, 86.4%, 44.9%)" stroke-width="1.5"></path><path d="M338.17 491.6L493.31 539.29" stroke="hsl(326.1, 86.4%, 44.9%)" stroke-width="1.5"></path><path d="M402.02 644.65L402.02 644.65" stroke="hsl(326.1, 86.4%, 44.9%)" stroke-width="1.5"></path><path d="M402.02 644.65L502.47 655.61" stroke="hsl(326.1, 86.4%, 44.9%)" stroke-width="1.5"></path><path d="M402.02 644.65L493.31 539.29" stroke="hsl(326.1, 86.4%, 44.9%)" stroke-width="1.5"></path><path d="M402.02 644.65L338.17 491.6" stroke="hsl(326.1, 86.4%, 44.9%)" stroke-width="1.5"></path><path d="M402.02 644.65L657.36 491.68" stroke="hsl(326.1, 86.4%, 44.9%)" stroke-width="1.5"></path><path d="M493.31 539.29L493.31 539.29" stroke="hsl(326.1, 86.4%, 44.9%)" stroke-width="1.5"></path><path d="M493.31 539.29L502.47 655.61" stroke="hsl(326.1, 86.4%, 44.9%)" stroke-width="1.5"></path><path d="M493.31 539.29L657.36 491.68" stroke="hsl(326.1, 86.4%, 44.9%)" stroke-width="1.5"></path><path d="M493.31 539.29L209.98 529.35" stroke="hsl(326.1, 86.4%, 44.9%)" stroke-width="1.5"></path><path d="M502.47 655.61L502.47 655.61" stroke="hsl(326.1, 86.4%, 44.9%)" stroke-width="1.5"></path><path d="M502.47 655.61L657.36 491.68" stroke="hsl(326.1, 86.4%, 44.9%)" stroke-width="1.5"></path><path d="M502.47 655.61L338.17 491.6" stroke="hsl(326.1, 86.4%, 44.9%)" stroke-width="1.5"></path><path d="M502.47 655.61L209.72 661.84" stroke="hsl(326.1, 86.4%, 44.9%)" stroke-width="1.5"></path><path d="M657.36 491.68L657.36 491.68" stroke="hsl(326.1, 86.4%, 44.9%)" stroke-width="1.5"></path><path d="M657.36 491.68L845.52 549.54" stroke="hsl(326.1, 86.4%, 44.9%)" stroke-width="1.5"></path><path d="M657.36 491.68L808.39 648.01" stroke="hsl(326.1, 86.4%, 44.9%)" stroke-width="1.5"></path><path d="M657.36 491.68L859.97 352.96" stroke="hsl(326.1, 86.4%, 44.9%)" stroke-width="1.5"></path><path d="M657.36 491.68L938.73 508.3" stroke="hsl(326.1, 86.4%, 44.9%)" stroke-width="1.5"></path><path d="M859.97 352.96L859.97 352.96" stroke="hsl(326.1, 86.4%, 44.9%)" stroke-width="1.5"></path><path d="M859.97 352.96L961.83 382" stroke="hsl(326.1, 86.4%, 44.9%)" stroke-width="1.5"></path><path d="M859.97 352.96L1001.49 244.14" stroke="hsl(326.1, 86.4%, 44.9%)" stroke-width="1.5"></path><path d="M859.97 352.96L845.52 549.54" stroke="hsl(326.1, 86.4%, 44.9%)" stroke-width="1.5"></path><path d="M859.97 352.96L1098.7 367.7" stroke="hsl(326.1, 86.4%, 44.9%)" stroke-width="1.5"></path><path d="M845.52 549.54L845.52 549.54" stroke="hsl(326.1, 86.4%, 44.9%)" stroke-width="1.5"></path><path d="M845.52 549.54L808.39 648.01" stroke="hsl(326.1, 86.4%, 44.9%)" stroke-width="1.5"></path><path d="M808.39 648.01L808.39 648.01" stroke="hsl(326.1, 86.4%, 44.9%)" stroke-width="1.5"></path><path d="M808.39 648.01L938.73 508.3" stroke="hsl(326.1, 86.4%, 44.9%)" stroke-width="1.5"></path><path d="M808.39 648.01L1003.18 695.01" stroke="hsl(326.1, 86.4%, 44.9%)" stroke-width="1.5"></path><path d="M1001.49 244.14L1001.49 244.14" stroke="hsl(326.1, 86.4%, 44.9%)" stroke-width="1.5"></path><path d="M1001.49 244.14L1102.84 235.67" stroke="hsl(326.1, 86.4%, 44.9%)" stroke-width="1.5"></path><path d="M1001.49 244.14L961.83 382" stroke="hsl(326.1, 86.4%, 44.9%)" stroke-width="1.5"></path><path d="M1001.49 244.14L1098.7 367.7" stroke="hsl(326.1, 86.4%, 44.9%)" stroke-width="1.5"></path><path d="M961.83 382L961.83 382" stroke="hsl(326.1, 86.4%, 44.9%)" stroke-width="1.5"></path><path d="M961.83 382L1098.7 367.7" stroke="hsl(326.1, 86.4%, 44.9%)" stroke-width="1.5"></path><path d="M1003.18 695.01L1003.18 695.01" stroke="hsl(326.1, 86.4%, 44.9%)" stroke-width="1.5"></path><path d="M1003.18 695.01L1119.14 647.64" stroke="hsl(326.1, 86.4%, 44.9%)" stroke-width="1.5"></path><path d="M1003.18 695.01L938.73 508.3" stroke="hsl(326.1, 86.4%, 44.9%)" stroke-width="1.5"></path><path d="M1102.84 235.67L1102.84 235.67" stroke="hsl(326.1, 86.4%, 44.9%)" stroke-width="1.5"></path><path d="M1102.84 235.67L1098.7 367.7" stroke="hsl(326.1, 86.4%, 44.9%)" stroke-width="1.5"></path><path d="M1098.7 367.7L1098.7 367.7" stroke="hsl(326.1, 86.4%, 44.9%)" stroke-width="1.5"></path><path d="M1098.7 367.7L1289.63 360.81" stroke="hsl(326.1, 86.4%, 44.9%)" stroke-width="1.5"></path><path d="M1119.14 647.64L1119.14 647.64" stroke="hsl(326.1, 86.4%, 44.9%)" stroke-width="1.5"></path><path d="M1119.14 647.64L1285.82 703.03" stroke="hsl(326.1, 86.4%, 44.9%)" stroke-width="1.5"></path><path d="M1119.14 647.64L1265.49 526.44" stroke="hsl(326.1, 86.4%, 44.9%)" stroke-width="1.5"></path><path d="M1119.14 647.64L938.73 508.3" stroke="hsl(326.1, 86.4%, 44.9%)" stroke-width="1.5"></path><path d="M1119.14 647.64L1389.83 666.06" stroke="hsl(326.1, 86.4%, 44.9%)" stroke-width="1.5"></path><path d="M1279.39 -45.82L1279.39 -45.82" stroke="hsl(326.1, 86.4%, 44.9%)" stroke-width="1.5"></path><path d="M1279.39 -45.82L1300.35 88.89" stroke="hsl(326.1, 86.4%, 44.9%)" stroke-width="1.5"></path><path d="M1279.39 -45.82L1438.2 -102.32" stroke="hsl(326.1, 86.4%, 44.9%)" stroke-width="1.5"></path><path d="M1300.35 88.89L1300.35 88.89" stroke="hsl(326.1, 86.4%, 44.9%)" stroke-width="1.5"></path><path d="M1300.35 88.89L1303.88 193.71" stroke="hsl(326.1, 86.4%, 44.9%)" stroke-width="1.5"></path><path d="M1303.88 193.71L1303.88 193.71" stroke="hsl(326.1, 86.4%, 44.9%)" stroke-width="1.5"></path><path d="M1303.88 193.71L1289.63 360.81" stroke="hsl(326.1, 86.4%, 44.9%)" stroke-width="1.5"></path><path d="M1289.63 360.81L1289.63 360.81" stroke="hsl(326.1, 86.4%, 44.9%)" stroke-width="1.5"></path><path d="M1289.63 360.81L1265.49 526.44" stroke="hsl(326.1, 86.4%, 44.9%)" stroke-width="1.5"></path><path d="M1265.49 526.44L1265.49 526.44" stroke="hsl(326.1, 86.4%, 44.9%)" stroke-width="1.5"></path><path d="M1265.49 526.44L1417.31 531.24" stroke="hsl(326.1, 86.4%, 44.9%)" stroke-width="1.5"></path><path d="M1265.49 526.44L1285.82 703.03" stroke="hsl(326.1, 86.4%, 44.9%)" stroke-width="1.5"></path><path d="M1265.49 526.44L1389.83 666.06" stroke="hsl(326.1, 86.4%, 44.9%)" stroke-width="1.5"></path><path d="M1285.82 703.03L1285.82 703.03" stroke="hsl(326.1, 86.4%, 44.9%)" stroke-width="1.5"></path><path d="M1285.82 703.03L1389.83 666.06" stroke="hsl(326.1, 86.4%, 44.9%)" stroke-width="1.5"></path><path d="M1438.2 -102.32L1438.2 -102.32" stroke="hsl(326.1, 86.4%, 44.9%)" stroke-width="1.5"></path><path d="M1438.2 -102.32L1446.16 68.81" stroke="hsl(326.1, 86.4%, 44.9%)" stroke-width="1.5"></path><path d="M1446.16 68.81L1446.16 68.81" stroke="hsl(326.1, 86.4%, 44.9%)" stroke-width="1.5"></path><path d="M1446.16 68.81L1300.35 88.89" stroke="hsl(326.1, 86.4%, 44.9%)" stroke-width="1.5"></path><path d="M1446.16 68.81L1303.88 193.71" stroke="hsl(326.1, 86.4%, 44.9%)" stroke-width="1.5"></path><path d="M1446.16 68.81L1601.07 187.56" stroke="hsl(326.1, 86.4%, 44.9%)" stroke-width="1.5"></path><path d="M1446.16 68.81L1279.39 -45.82" stroke="hsl(326.1, 86.4%, 44.9%)" stroke-width="1.5"></path><path d="M1417.31 531.24L1417.31 531.24" stroke="hsl(326.1, 86.4%, 44.9%)" stroke-width="1.5"></path><path d="M1417.31 531.24L1389.83 666.06" stroke="hsl(326.1, 86.4%, 44.9%)" stroke-width="1.5"></path><path d="M1417.31 531.24L1541.9 663.43" stroke="hsl(326.1, 86.4%, 44.9%)" stroke-width="1.5"></path><path d="M1417.31 531.24L1549.26 372.5" stroke="hsl(326.1, 86.4%, 44.9%)" stroke-width="1.5"></path><path d="M1417.31 531.24L1289.63 360.81" stroke="hsl(326.1, 86.4%, 44.9%)" stroke-width="1.5"></path><path d="M1389.83 666.06L1389.83 666.06" stroke="hsl(326.1, 86.4%, 44.9%)" stroke-width="1.5"></path><path d="M1389.83 666.06L1541.9 663.43" stroke="hsl(326.1, 86.4%, 44.9%)" stroke-width="1.5"></path><path d="M1601.07 187.56L1601.07 187.56" stroke="hsl(326.1, 86.4%, 44.9%)" stroke-width="1.5"></path><path d="M1601.07 187.56L1549.26 372.5" stroke="hsl(326.1, 86.4%, 44.9%)" stroke-width="1.5"></path><path d="M1601.07 187.56L1609.38 -79.02" stroke="hsl(326.1, 86.4%, 44.9%)" stroke-width="1.5"></path><path d="M1549.26 372.5L1549.26 372.5" stroke="hsl(326.1, 86.4%, 44.9%)" stroke-width="1.5"></path><path d="M1549.26 372.5L1289.63 360.81" stroke="hsl(326.1, 86.4%, 44.9%)" stroke-width="1.5"></path><path d="M1549.26 372.5L1586.64 84.81" stroke="hsl(326.1, 86.4%, 44.9%)" stroke-width="1.5"></path><path d="M1549.26 372.5L1541.9 663.43" stroke="hsl(326.1, 86.4%, 44.9%)" stroke-width="1.5"></path><path d="M1549.26 372.5L1303.88 193.71" stroke="hsl(326.1, 86.4%, 44.9%)" stroke-width="1.5"></path><path d="M1541.9 663.43L1541.9 663.43" stroke="hsl(326.1, 86.4%, 44.9%)" stroke-width="1.5"></path><circle r="25" cx="52.06" cy="688.86" fill="url(&quot;#SvgjsRadialGradient1152&quot;)"></circle><circle r="25" cx="209.72" cy="661.84" fill="url(&quot;#SvgjsRadialGradient1152&quot;)"></circle><circle r="25" cx="938.73" cy="508.3" fill="url(&quot;#SvgjsRadialGradient1152&quot;)"></circle><circle r="25" cx="1150.39" cy="40.64" fill="url(&quot;#SvgjsRadialGradient1152&quot;)"></circle><circle r="25" cx="1152.63" cy="556" fill="url(&quot;#SvgjsRadialGradient1152&quot;)"></circle><circle r="25" cx="1609.38" cy="-79.02" fill="url(&quot;#SvgjsRadialGradient1152&quot;)"></circle><circle r="25" cx="1586.64" cy="84.81" fill="url(&quot;#SvgjsRadialGradient1152&quot;)"></circle><circle r="5" cx="-81.32" cy="513.01" fill="#d286b1"></circle><circle r="5" cx="-64.09" cy="651.43" fill="#d286b1"></circle><circle r="5" cx="56.24" cy="558.07" fill="#d286b1"></circle><circle r="5" cx="209.98" cy="529.35" fill="#d286b1"></circle><circle r="5" cx="338.17" cy="491.6" fill="#d286b1"></circle><circle r="5" cx="402.02" cy="644.65" fill="#d286b1"></circle><circle r="5" cx="493.31" cy="539.29" fill="#d286b1"></circle><circle r="5" cx="502.47" cy="655.61" fill="#d286b1"></circle><circle r="5" cx="657.36" cy="491.68" fill="#d286b1"></circle><circle r="5" cx="859.97" cy="352.96" fill="#d286b1"></circle><circle r="5" cx="845.52" cy="549.54" fill="#d286b1"></circle><circle r="5" cx="808.39" cy="648.01" fill="#d286b1"></circle><circle r="5" cx="1001.49" cy="244.14" fill="#d286b1"></circle><circle r="5" cx="961.83" cy="382" fill="#d286b1"></circle><circle r="5" cx="1003.18" cy="695.01" fill="#d286b1"></circle><circle r="5" cx="1102.84" cy="235.67" fill="#d286b1"></circle><circle r="5" cx="1098.7" cy="367.7" fill="#d286b1"></circle><circle r="5" cx="1119.14" cy="647.64" fill="#d286b1"></circle><circle r="5" cx="1279.39" cy="-45.82" fill="#d286b1"></circle><circle r="5" cx="1300.35" cy="88.89" fill="#d286b1"></circle><circle r="5" cx="1303.88" cy="193.71" fill="#d286b1"></circle><circle r="5" cx="1289.63" cy="360.81" fill="#d286b1"></circle><circle r="5" cx="1265.49" cy="526.44" fill="#d286b1"></circle><circle r="5" cx="1285.82" cy="703.03" fill="#d286b1"></circle><circle r="5" cx="1438.2" cy="-102.32" fill="#d286b1"></circle><circle r="5" cx="1446.16" cy="68.81" fill="#d286b1"></circle><circle r="5" cx="1417.31" cy="531.24" fill="#d286b1"></circle><circle r="5" cx="1389.83" cy="666.06" fill="#d286b1"></circle><circle r="5" cx="1601.07" cy="187.56" fill="#d286b1"></circle><circle r="5" cx="1549.26" cy="372.5" fill="#d286b1"></circle><circle r="5" cx="1541.9" cy="663.43" fill="#d286b1"></circle></g><defs><mask id="SvgjsMask1150"><rect width="1440" height="560" fill="#ffffff"></rect></mask><linearGradient x1="50%" y1="0%" x2="50%" y2="100%" gradientUnits="userSpaceOnUse" id="SvgjsLinearGradient1151"><stop stop-color="#0e2a47" offset="0"></stop><stop stop-color="rgba(8, 4, 11, 1)" offset="1"></stop></linearGradient><radialGradient id="SvgjsRadialGradient1152"><stop stop-color="#ffffff" offset="0.1"></stop><stop stop-color="rgba(164, 12, 98, 1)" offset="0.2"></stop><stop stop-color="rgba(164, 12, 98, 0)" offset="1"></stop></radialGradient></defs></svg>